<svg version="1.1" id="Layer_1" xmlns="http://www.w3.org/2000/svg" xmlns:xlink="http://www.w3.org/1999/xlink" x="0px" y="0px"
	 width="100%" viewBox="0 0 512 512" enable-background="new 0 0 512 512" xml:space="preserve">
<path fill="#010101" opacity="1.000000" stroke="none" 
	d="
M513.000000,261.000000 
	C513.000000,308.020905 513.000000,355.041779 512.635315,402.644470 
	C508.349304,416.092133 500.400177,424.981659 486.696289,426.853058 
	C478.248322,428.006714 469.584839,427.488586 461.039734,428.049866 
	C451.350800,428.686249 447.290375,423.804718 446.933502,414.338104 
	C446.877563,412.854034 446.412506,410.808136 445.378021,410.028595 
	C436.259064,403.156586 426.968445,396.512360 417.708160,389.785889 
	C413.975739,395.884949 410.509918,396.878937 404.071106,395.146301 
	C399.132141,393.817230 398.772339,389.555542 397.307983,385.849274 
	C397.734680,384.752533 397.900055,383.930176 397.900391,383.107727 
	C397.913391,352.493103 397.914154,321.878479 397.897003,291.263855 
	C397.896484,290.320648 397.688934,289.377594 397.577332,288.429779 
	C391.527191,288.429779 385.799866,288.429779 379.757355,288.429779 
	C379.757355,290.586151 379.757355,292.400665 379.757324,294.215179 
	C379.757202,316.011444 379.777588,337.807770 379.746704,359.604004 
	C379.734680,368.105621 377.640656,370.803772 369.211304,372.999237 
	C361.486664,370.599060 359.773102,368.297668 359.765533,360.174438 
	C359.737793,330.518402 359.756042,300.862305 359.753143,271.206238 
	C359.751953,259.288116 356.648315,256.214752 344.614777,256.214508 
	C270.308014,256.213104 196.001236,256.213287 121.694458,256.214355 
	C109.496124,256.214508 106.561028,259.098328 106.559990,271.124298 
	C106.555550,322.272675 106.552650,373.421051 106.575775,424.569427 
	C106.576828,426.892181 106.627609,429.250763 107.020866,431.529572 
	C107.708725,435.515411 110.237610,438.078400 114.140610,438.958160 
	C116.385849,439.464264 118.759148,439.570221 121.074921,439.571136 
	C195.714905,439.600739 270.354889,439.599457 344.994873,439.575867 
	C347.147400,439.575195 349.634064,439.910339 351.375580,438.982544 
	C354.127930,437.516327 357.901215,435.509430 358.549713,433.027679 
	C360.257294,426.492523 364.007355,422.838654 370.471100,421.139587 
	C377.315338,423.565491 380.995178,428.351257 379.961060,433.636597 
	C376.722168,450.189911 365.670990,459.716980 348.987793,459.982574 
	C341.727905,460.098145 334.464630,460.001953 327.001953,460.001953 
	C327.001953,467.219513 327.311768,473.878479 326.928375,480.497314 
	C326.371796,490.106110 322.326202,498.276154 314.515808,503.974182 
	C309.707886,507.481750 304.195892,510.024231 299.000000,513.000000 
	C254.312439,513.000000 209.624878,513.000000 164.353073,512.633057 
	C144.547165,507.371338 136.026382,492.680115 135.034256,473.978119 
	C134.791092,469.394318 134.998016,464.786621 134.998016,460.001953 
	C129.099197,460.001953 123.771301,459.728088 118.479958,460.051849 
	C100.667725,461.141754 85.429611,446.287170 85.898148,427.578033 
	C86.356781,409.264374 85.998001,390.930298 85.998001,372.605164 
	C85.998001,369.826233 85.998001,367.047302 85.998001,364.001953 
	C81.033653,364.001953 76.548317,364.253265 72.102554,363.941071 
	C65.950279,363.509064 60.412140,363.669891 58.876053,371.341736 
	C58.762299,371.909912 58.067741,372.356720 57.657333,372.871216 
	C46.512047,386.843140 31.238136,386.284241 15.876405,384.228302 
	C7.962913,383.169189 4.059082,376.746826 1.000000,370.000000 
	C1.000000,344.645782 1.000000,319.291534 1.349539,293.372375 
	C5.374174,283.421631 12.139062,278.679962 22.329330,278.982483 
	C25.656403,279.081268 29.001377,279.186157 32.316746,278.965881 
	C47.834854,277.934875 58.790337,289.788605 62.649197,299.635193 
	C70.481461,299.635193 78.214699,299.635193 85.998001,299.635193 
	C85.998001,288.950836 86.072258,278.628540 85.978661,268.307800 
	C85.868927,256.208252 90.337784,246.599243 100.754669,240.004059 
	C101.701035,239.404877 102.837120,238.218689 102.887817,237.252747 
	C103.060768,233.958084 103.528679,230.334167 102.346748,227.470352 
	C101.819923,226.193878 97.621521,226.470749 95.107033,225.956894 
	C94.169426,225.765289 93.306152,225.182266 92.367699,225.026596 
	C70.704926,221.432861 52.180912,211.355789 36.312370,196.630981 
	C21.855639,183.216217 11.344172,166.999756 5.991547,147.787766 
	C4.166388,141.236771 2.654842,134.598434 1.000000,128.000000 
	C1.000000,118.645775 1.000000,109.291542 1.388226,99.327385 
	C3.065680,85.462082 7.665662,73.209610 13.314584,61.315140 
	C16.249825,55.134651 21.090721,53.500591 28.191015,56.144943 
	C33.990120,61.863770 34.555489,64.580154 31.062250,71.938759 
	C17.282797,100.965553 16.894749,130.184082 32.515686,158.235733 
	C50.438499,190.421051 79.007843,206.612976 115.788513,206.779724 
	C192.778900,207.128738 269.772064,206.945389 346.763702,206.788040 
	C354.035553,206.773193 361.467041,206.118408 368.548859,204.531204 
	C418.005371,193.447052 448.643829,147.307098 440.131805,97.210938 
	C431.772949,48.016582 382.624176,13.408264 333.719086,22.280027 
	C288.974152,30.397108 257.740784,66.563416 256.062958,112.201088 
	C255.779068,119.922928 251.941498,123.803001 244.229416,123.930534 
	C237.898468,124.035240 231.564438,123.953056 225.231766,123.953133 
	C208.871399,123.953323 207.315384,122.604942 206.208008,106.443253 
	C204.646942,83.660477 195.710846,63.898418 179.409149,48.384113 
	C150.462692,20.835800 116.590927,13.822860 78.943970,28.092827 
	C72.231773,30.637064 66.771393,30.672094 61.844540,24.561052 
	C59.596840,19.121595 60.948414,14.389625 65.112610,11.692356 
	C69.300522,8.979718 74.412582,7.536753 79.279922,6.068740 
	C85.772285,4.110612 92.419373,2.665474 99.000000,1.000000 
	C108.354225,1.000000 117.708458,1.000000 127.680756,1.394451 
	C131.033508,2.189794 133.782455,2.511965 136.500626,3.004053 
	C157.907684,6.879506 176.204742,16.952965 192.003433,31.589529 
	C204.176865,42.867485 213.288849,56.513565 219.237762,71.936340 
	C222.391342,80.112106 224.204422,88.884636 225.821304,97.537514 
	C226.554108,101.459183 227.259857,103.707191 231.671265,103.028244 
	C232.950912,102.831299 234.286514,102.998001 236.038895,102.998001 
	C236.383530,99.888901 236.487106,96.981522 237.052673,94.166977 
	C241.292389,73.067459 250.015060,54.047733 264.529663,38.064110 
	C278.180756,23.031355 294.647430,11.994397 314.216797,6.074049 
	C321.032440,4.012114 328.065979,2.670554 335.000000,0.999998 
	C344.020905,1.000000 353.041779,1.000000 362.680756,1.394452 
	C375.281860,2.302934 386.534485,6.054120 397.084717,11.158133 
	C421.159271,22.804949 439.505188,40.438782 451.074677,64.962349 
	C461.718506,87.523987 464.420258,110.805428 460.109406,135.291092 
	C456.226562,157.345612 445.847290,175.984390 431.074921,192.227249 
	C420.490143,203.865692 407.385101,212.564590 392.827087,218.416245 
	C384.111847,221.919388 374.623505,223.483063 365.516937,226.040405 
	C363.279175,226.668823 359.420197,227.623627 359.328888,228.687698 
	C359.016296,232.331665 357.100922,236.954819 362.788483,239.044907 
	C369.520264,241.518738 374.376007,246.362473 376.919220,253.040314 
	C378.716461,257.759338 379.722046,262.779846 381.173492,267.998047 
	C388.434448,267.998047 396.259277,268.240570 404.060791,267.918579 
	C409.924927,267.676544 415.105682,268.271210 417.852356,274.148468 
	C426.140228,267.908325 433.956116,261.825012 442.002625,256.063843 
	C445.180206,253.788727 447.145599,251.717682 447.184387,247.270462 
	C447.254486,239.236832 453.042664,235.364990 459.351990,235.867401 
	C466.471710,236.434341 473.671448,236.024582 480.836182,235.991806 
	C491.636078,235.942398 500.325531,240.196854 506.456299,249.065674 
	C509.022369,252.777756 510.841339,257.006287 513.000000,261.000000 
M467.821991,271.503815 
	C467.821991,316.606903 467.821991,361.709961 467.821991,407.336365 
	C471.637665,407.336365 474.924713,407.362488 478.211273,407.331512 
	C487.975800,407.239471 492.977203,402.297913 492.989685,392.631531 
	C493.017029,371.471649 492.998505,350.311676 492.998291,329.151764 
	C492.998108,309.491364 493.025024,289.830872 492.981201,270.170563 
	C492.966919,263.751709 489.693939,258.262878 484.201080,257.157990 
	C478.979523,256.107666 473.499664,256.341431 467.821899,255.991425 
	C467.821899,261.531006 467.821899,266.018311 467.821991,271.503815 
M443.351715,280.832672 
	C436.002045,286.283142 428.743378,291.863342 421.253906,297.114410 
	C418.599457,298.975494 417.790131,301.003998 417.832489,304.139648 
	C418.005585,316.955811 417.861420,329.775879 417.921753,342.594086 
	C417.955292,349.725159 416.045380,357.896606 418.895081,363.688232 
	C421.652252,369.291809 429.373138,372.466187 434.943695,376.667969 
	C438.976410,379.709778 443.058014,382.686890 447.553864,386.015717 
	C447.553864,349.552307 447.553864,314.049408 447.553864,278.008057 
	C446.064667,278.979797 444.993073,279.679047 443.351715,280.832672 
M265.499969,236.213760 
	C289.899200,236.213760 314.298462,236.213760 338.693359,236.213760 
	C338.693359,232.738708 338.693359,229.984909 338.693359,227.101166 
	C267.068604,227.101166 195.714691,227.101166 124.289368,227.101166 
	C124.289368,230.247284 124.289368,233.122177 124.289368,236.213821 
	C171.262390,236.213821 217.881165,236.213821 265.499969,236.213760 
M20.996183,311.514954 
	C20.996183,329.069000 20.996183,346.623047 20.996183,364.706757 
	C25.059874,364.706757 28.534111,364.957367 31.959688,364.655609 
	C39.539017,363.987946 43.695652,359.683594 43.808914,351.959198 
	C44.006294,338.498016 44.008247,325.029510 43.799122,311.568604 
	C43.688320,304.436401 39.818859,300.017944 33.230770,299.274445 
	C29.350485,298.836548 25.380392,299.194458 20.996181,299.194458 
	C20.996181,303.281799 20.996181,306.902527 20.996183,311.514954 
M227.504303,459.767548 
	C222.894516,459.767548 218.284729,459.767548 213.484100,459.767548 
	C213.484100,471.133698 213.484100,481.947296 213.484100,492.665894 
	C226.816696,492.665894 239.705307,492.665894 252.679535,492.665894 
	C252.679535,481.631500 252.679535,470.931152 252.679535,460.364258 
	C252.027512,460.113068 251.727097,459.897797 251.425110,459.895538 
	C243.784607,459.839142 236.143936,459.805084 227.504303,459.767548 
M167.510422,459.596741 
	C163.753723,459.596741 159.997009,459.596741 156.030396,459.596741 
	C156.030396,466.242126 155.721893,472.229614 156.107544,478.172058 
	C156.602859,485.804077 162.947174,492.256561 170.758636,492.773438 
	C178.008499,493.253174 185.315094,492.875732 192.740570,492.875732 
	C192.740570,481.664612 192.740570,470.777863 192.740570,459.596527 
	C184.459671,459.596527 176.483002,459.596527 167.510422,459.596741 
M306.936249,477.024963 
	C306.936249,471.279114 306.936249,465.533295 306.936249,459.918762 
	C295.287476,459.918762 284.364899,459.918762 273.268860,459.918762 
	C273.268860,470.999542 273.268860,481.755005 273.268860,493.000122 
	C278.425140,493.000122 283.378937,493.023254 288.332428,492.995331 
	C298.877167,492.935883 304.543060,488.313263 306.936249,477.024963 
M86.680313,329.578369 
	C86.677116,327.421906 86.953110,325.211731 86.553116,323.131561 
	C86.352661,322.089081 84.946503,320.523346 84.041077,320.492279 
	C77.455772,320.266174 70.859123,320.370667 64.260925,320.370667 
	C64.260925,328.307648 64.260925,335.651947 64.260925,342.794556 
	C71.887665,342.794556 79.097046,342.794556 86.680054,342.794556 
	C86.680054,338.462341 86.680054,334.507141 86.680313,329.578369 
z"/>
<path fill="#FFFFFF" opacity="1.000000" stroke="none" 
	d="
M513.000000,260.531342 
	C510.841339,257.006287 509.022369,252.777756 506.456299,249.065674 
	C500.325531,240.196854 491.636078,235.942398 480.836182,235.991806 
	C473.671448,236.024582 466.471710,236.434341 459.351990,235.867401 
	C453.042664,235.364990 447.254486,239.236832 447.184387,247.270462 
	C447.145599,251.717682 445.180206,253.788727 442.002625,256.063843 
	C433.956116,261.825012 426.140228,267.908325 417.852356,274.148468 
	C415.105682,268.271210 409.924927,267.676544 404.060791,267.918579 
	C396.259277,268.240570 388.434448,267.998047 381.173492,267.998047 
	C379.722046,262.779846 378.716461,257.759338 376.919220,253.040314 
	C374.376007,246.362473 369.520264,241.518738 362.788483,239.044907 
	C357.100922,236.954819 359.016296,232.331665 359.328888,228.687698 
	C359.420197,227.623627 363.279175,226.668823 365.516937,226.040405 
	C374.623505,223.483063 384.111847,221.919388 392.827087,218.416245 
	C407.385101,212.564590 420.490143,203.865692 431.074921,192.227249 
	C445.847290,175.984390 456.226562,157.345612 460.109406,135.291092 
	C464.420258,110.805428 461.718506,87.523987 451.074677,64.962349 
	C439.505188,40.438782 421.159271,22.804949 397.084717,11.158133 
	C386.534485,6.054120 375.281860,2.302934 363.149414,1.394452 
	C412.946594,1.000000 462.893188,1.000000 513.000000,1.000000 
	C513.000000,87.354164 513.000000,173.708420 513.000000,260.531342 
z"/>
<path fill="#FFFFFF" opacity="1.000000" stroke="none" 
	d="
M396.969727,386.123596 
	C398.772339,389.555542 399.132141,393.817230 404.071106,395.146301 
	C410.509918,396.878937 413.975739,395.884949 417.708160,389.785889 
	C426.968445,396.512360 436.259064,403.156586 445.378021,410.028595 
	C446.412506,410.808136 446.877563,412.854034 446.933502,414.338104 
	C447.290375,423.804718 451.350800,428.686249 461.039734,428.049866 
	C469.584839,427.488586 478.248322,428.006714 486.696289,426.853058 
	C500.400177,424.981659 508.349304,416.092133 512.635315,403.113129 
	C513.000000,439.617096 513.000000,476.234222 513.000000,513.000000 
	C441.979187,513.000000 370.958252,513.000000 299.468658,513.000000 
	C304.195892,510.024231 309.707886,507.481750 314.515808,503.974182 
	C322.326202,498.276154 326.371796,490.106110 326.928375,480.497314 
	C327.311768,473.878479 327.001953,467.219513 327.001953,460.001953 
	C334.464630,460.001953 341.727905,460.098145 348.987793,459.982574 
	C365.670990,459.716980 376.722168,450.189911 379.961060,433.636597 
	C380.995178,428.351257 377.315338,423.565491 370.415192,420.674438 
	C370.023682,414.103455 370.027191,408.124054 370.424347,402.079529 
	C378.687164,401.044159 381.792236,395.028992 379.464294,386.093201 
	C385.608307,386.057343 391.289001,386.090485 396.969727,386.123596 
z"/>
<path fill="#FFFFFF" opacity="1.000000" stroke="none" 
	d="
M1.000000,370.468658 
	C4.059082,376.746826 7.962913,383.169189 15.876405,384.228302 
	C31.238136,386.284241 46.512047,386.843140 57.657333,372.871216 
	C58.067741,372.356720 58.762299,371.909912 58.876053,371.341736 
	C60.412140,363.669891 65.950279,363.509064 72.102554,363.941071 
	C76.548317,364.253265 81.033653,364.001953 85.998001,364.001953 
	C85.998001,367.047302 85.998001,369.826233 85.998001,372.605164 
	C85.998001,390.930298 86.356781,409.264374 85.898148,427.578033 
	C85.429611,446.287170 100.667725,461.141754 118.479958,460.051849 
	C123.771301,459.728088 129.099197,460.001953 134.998016,460.001953 
	C134.998016,464.786621 134.791092,469.394318 135.034256,473.978119 
	C136.026382,492.680115 144.547165,507.371338 163.884415,512.633057 
	C109.744446,513.000000 55.488884,513.000000 1.000000,513.000000 
	C1.000000,465.646027 1.000000,418.291687 1.000000,370.468658 
z"/>
<path fill="#FFFFFF" opacity="1.000000" stroke="none" 
	d="
M1.000000,128.468658 
	C2.654842,134.598434 4.166388,141.236771 5.991547,147.787766 
	C11.344172,166.999756 21.855639,183.216217 36.312370,196.630981 
	C52.180912,211.355789 70.704926,221.432861 92.367699,225.026596 
	C93.306152,225.182266 94.169426,225.765289 95.107033,225.956894 
	C97.621521,226.470749 101.819923,226.193878 102.346748,227.470352 
	C103.528679,230.334167 103.060768,233.958084 102.887817,237.252747 
	C102.837120,238.218689 101.701035,239.404877 100.754669,240.004059 
	C90.337784,246.599243 85.868927,256.208252 85.978661,268.307800 
	C86.072258,278.628540 85.998001,288.950836 85.998001,299.635193 
	C78.214699,299.635193 70.481461,299.635193 62.649197,299.635193 
	C58.790337,289.788605 47.834854,277.934875 32.316746,278.965881 
	C29.001377,279.186157 25.656403,279.081268 22.329330,278.982483 
	C12.139062,278.679962 5.374174,283.421631 1.349539,292.903748 
	C1.000000,238.312439 1.000000,183.624878 1.000000,128.468658 
z"/>
<path fill="#FFFFFF" opacity="1.000000" stroke="none" 
	d="
M334.531342,0.999998 
	C328.065979,2.670554 321.032440,4.012114 314.216797,6.074049 
	C294.647430,11.994397 278.180756,23.031355 264.529663,38.064110 
	C250.015060,54.047733 241.292389,73.067459 237.052673,94.166977 
	C236.487106,96.981522 236.383530,99.888901 236.038895,102.998001 
	C234.286514,102.998001 232.950912,102.831299 231.671265,103.028244 
	C227.259857,103.707191 226.554108,101.459183 225.821304,97.537514 
	C224.204422,88.884636 222.391342,80.112106 219.237762,71.936340 
	C213.288849,56.513565 204.176865,42.867485 192.003433,31.589529 
	C176.204742,16.952965 157.907684,6.879506 136.500626,3.004053 
	C133.782455,2.511965 131.033508,2.189794 128.149414,1.394451 
	C196.687561,1.000000 265.375122,1.000000 334.531342,0.999998 
z"/>
<path fill="#FFFFFF" opacity="1.000000" stroke="none" 
	d="
M27.919895,55.923946 
	C21.090721,53.500591 16.249825,55.134651 13.314584,61.315140 
	C7.665662,73.209610 3.065680,85.462082 1.388226,98.858727 
	C1.000000,66.406403 1.000000,33.812801 1.000000,1.000000 
	C33.353897,1.000000 65.708290,1.000000 98.531342,1.000000 
	C92.419373,2.665474 85.772285,4.110612 79.279922,6.068740 
	C74.412582,7.536753 69.300522,8.979718 65.112610,11.692356 
	C60.948414,14.389625 59.596840,19.121595 61.481560,24.590788 
	C56.814491,28.054695 52.380924,31.103256 47.609936,33.984947 
	C41.155273,30.513149 35.959705,31.026417 32.196163,35.307457 
	C28.752153,39.225033 29.077087,44.773266 32.724068,50.029636 
	C30.903856,52.063599 29.411877,53.993774 27.919895,55.923946 
z"/>
<path fill="#3D5384" opacity="1.000000" stroke="none" 
	d="
M47.947357,34.151817 
	C52.380924,31.103256 56.814491,28.054695 61.611046,24.976398 
	C66.771393,30.672094 72.231773,30.637064 78.943970,28.092827 
	C116.590927,13.822860 150.462692,20.835800 179.409149,48.384113 
	C195.710846,63.898418 204.646942,83.660477 206.208008,106.443253 
	C207.315384,122.604942 208.871399,123.953323 225.231766,123.953133 
	C231.564438,123.953056 237.898468,124.035240 244.229416,123.930534 
	C251.941498,123.803001 255.779068,119.922928 256.062958,112.201088 
	C257.740784,66.563416 288.974152,30.397108 333.719086,22.280027 
	C382.624176,13.408264 431.772949,48.016582 440.131805,97.210938 
	C448.643829,147.307098 418.005371,193.447052 368.548859,204.531204 
	C361.467041,206.118408 354.035553,206.773193 346.763702,206.788040 
	C269.772064,206.945389 192.778900,207.128738 115.788513,206.779724 
	C79.007843,206.612976 50.438499,190.421051 32.515686,158.235733 
	C16.894749,130.184082 17.282797,100.965553 31.062250,71.938759 
	C34.555489,64.580154 33.990120,61.863770 28.191017,56.144943 
	C29.411877,53.993774 30.903856,52.063599 33.104225,50.046112 
	C38.202679,52.480930 42.567352,52.880268 46.676376,49.474072 
	C49.923962,46.781963 50.698887,43.145245 49.818871,39.181549 
	C49.434822,37.451733 48.585423,35.825237 47.947357,34.151817 
M360.849548,86.419121 
	C353.452087,83.418159 346.010010,82.992302 338.473297,85.936691 
	C327.374725,90.272614 320.825317,98.545151 319.298889,110.105835 
	C317.706238,122.167648 322.384918,132.079620 332.613983,138.822144 
	C342.492126,145.333344 353.018616,145.689011 363.336426,139.963074 
	C373.633118,134.248840 379.127380,125.121956 378.827179,113.347229 
	C378.517883,101.216225 372.556396,92.210846 360.849548,86.419121 
M86.088257,102.848495 
	C85.832672,103.639755 85.569817,104.428757 85.322594,105.222618 
	C81.280853,118.201012 86.570786,132.128540 98.321480,139.451584 
	C109.575531,146.465088 124.866539,144.759918 134.778870,135.386063 
	C144.339142,126.345161 146.702942,110.504601 139.859467,99.093384 
	C133.822632,89.027229 124.769676,83.602325 112.936852,84.076874 
	C100.535034,84.574257 91.641968,90.833061 86.088257,102.848495 
z"/>
<path fill="#52C6D5" opacity="1.000000" stroke="none" 
	d="
M370.030701,402.144684 
	C370.027191,408.124054 370.023682,414.103455 370.076080,420.548004 
	C364.007355,422.838654 360.257294,426.492523 358.549713,433.027679 
	C357.901215,435.509430 354.127930,437.516327 351.375580,438.982544 
	C349.634064,439.910339 347.147400,439.575195 344.994873,439.575867 
	C270.354889,439.599457 195.714905,439.600739 121.074921,439.571136 
	C118.759148,439.570221 116.385849,439.464264 114.140610,438.958160 
	C110.237610,438.078400 107.708725,435.515411 107.020866,431.529572 
	C106.627609,429.250763 106.576828,426.892181 106.575775,424.569427 
	C106.552650,373.421051 106.555550,322.272675 106.559990,271.124298 
	C106.561028,259.098328 109.496124,256.214508 121.694458,256.214355 
	C196.001236,256.213287 270.308014,256.213104 344.614777,256.214508 
	C356.648315,256.214752 359.751953,259.288116 359.753143,271.206238 
	C359.756042,300.862305 359.737793,330.518402 359.765533,360.174438 
	C359.773102,368.297668 361.486664,370.599060 369.234894,373.423920 
	C369.587280,376.473389 369.589752,378.986908 369.254364,381.636292 
	C361.668030,383.479645 358.073090,389.109894 360.362885,395.296326 
	C362.008972,399.743652 365.770203,401.325531 370.030701,402.144684 
M194.500046,271.215759 
	C180.842804,271.216553 167.184280,271.099823 153.528610,271.246826 
	C135.087921,271.445282 122.459839,282.907227 121.835083,300.771179 
	C121.329185,315.236359 121.436020,329.755005 122.039467,344.217865 
	C122.629692,358.363586 134.825241,370.668549 148.940475,370.889771 
	C177.409576,371.335907 205.895645,371.325989 234.364746,370.875458 
	C248.056854,370.658783 260.252258,358.710449 260.978088,345.048309 
	C261.754333,330.437012 262.104797,315.730164 261.366394,301.129486 
	C260.412079,282.259796 247.981415,271.340546 228.976944,271.228821 
	C217.818359,271.163208 206.659042,271.216187 194.500046,271.215759 
M296.276611,337.690674 
	C288.701233,343.837830 284.770782,351.768250 284.776520,361.544250 
	C284.783447,373.370239 284.535004,385.210938 285.033813,397.018402 
	C285.671906,412.123199 298.565582,423.956177 314.095703,424.380951 
	C329.111023,424.791687 342.898376,413.460236 343.988647,398.574951 
	C344.922791,385.821259 344.857330,372.950653 344.458649,360.155945 
	C344.092987,348.420258 338.046844,339.846863 327.635742,334.221619 
	C326.210480,333.451477 324.897095,331.021088 324.872437,329.339722 
	C324.657440,314.682709 324.774170,300.021057 324.718964,285.361084 
	C324.710907,283.217224 324.545624,281.020752 324.055756,278.942291 
	C322.794373,273.590454 318.193909,270.761139 312.773956,271.775482 
	C307.556122,272.752014 304.828339,276.280884 304.781952,282.703735 
	C304.685669,296.030487 304.369141,309.373718 304.904388,322.679565 
	C305.184021,329.631104 304.329254,335.023987 296.276611,337.690674 
M179.821167,424.041016 
	C187.124573,424.138123 194.447845,424.605225 201.725021,424.214233 
	C207.453766,423.906403 211.066711,419.536835 210.998016,414.400055 
	C210.928467,409.198242 207.281143,405.164062 201.491745,404.777740 
	C195.359360,404.368469 189.178665,404.386871 183.031006,404.586304 
	C176.936050,404.783997 173.564270,407.523956 172.394119,412.522766 
	C171.279037,417.286377 173.369324,420.883575 179.821167,424.041016 
M124.262260,407.847961 
	C118.963844,415.961243 122.603958,423.818176 132.234772,424.484131 
	C138.035950,424.885315 143.897186,424.786957 149.712708,424.513947 
	C156.401505,424.199860 160.538559,420.132080 160.511902,414.477386 
	C160.485046,408.780457 156.363937,404.848328 149.623947,404.572449 
	C143.971680,404.341034 138.281281,404.252472 132.649094,404.664856 
	C129.986374,404.859772 127.420326,406.374817 124.262260,407.847961 
M226.426361,406.820618 
	C220.352707,413.403717 222.096802,422.788788 230.122803,423.805328 
	C237.956680,424.797485 246.044159,424.427826 253.962646,423.856567 
	C258.301666,423.543579 260.773163,420.036011 261.249237,415.578552 
	C261.750793,410.882507 259.820740,406.529785 255.509872,405.669067 
	C246.104065,403.791077 236.454422,403.104889 226.426361,406.820618 
z"/>
<path fill="#FC4848" opacity="1.000000" stroke="none" 
	d="
M467.821960,271.004700 
	C467.821899,266.018311 467.821899,261.531006 467.821899,255.991425 
	C473.499664,256.341431 478.979523,256.107666 484.201080,257.157990 
	C489.693939,258.262878 492.966919,263.751709 492.981201,270.170563 
	C493.025024,289.830872 492.998108,309.491364 492.998291,329.151764 
	C492.998505,350.311676 493.017029,371.471649 492.989685,392.631531 
	C492.977203,402.297913 487.975800,407.239471 478.211273,407.331512 
	C474.924713,407.362488 471.637665,407.336365 467.821991,407.336365 
	C467.821991,361.709961 467.821991,316.606903 467.821960,271.004700 
z"/>
<path fill="#52C6D5" opacity="1.000000" stroke="none" 
	d="
M443.636597,280.605469 
	C444.993073,279.679047 446.064667,278.979797 447.553864,278.008057 
	C447.553864,314.049408 447.553864,349.552307 447.553864,386.015717 
	C443.058014,382.686890 438.976410,379.709778 434.943695,376.667969 
	C429.373138,372.466187 421.652252,369.291809 418.895081,363.688232 
	C416.045380,357.896606 417.955292,349.725159 417.921753,342.594086 
	C417.861420,329.775879 418.005585,316.955811 417.832489,304.139648 
	C417.790131,301.003998 418.599457,298.975494 421.253906,297.114410 
	C428.743378,291.863342 436.002045,286.283142 443.636597,280.605469 
z"/>
<path fill="#FF836C" opacity="1.000000" stroke="none" 
	d="
M264.999939,236.213791 
	C217.881165,236.213821 171.262390,236.213821 124.289368,236.213821 
	C124.289368,233.122177 124.289368,230.247284 124.289368,227.101166 
	C195.714691,227.101166 267.068604,227.101166 338.693359,227.101166 
	C338.693359,229.984909 338.693359,232.738708 338.693359,236.213760 
	C314.298462,236.213760 289.899200,236.213760 264.999939,236.213791 
z"/>
<path fill="#FA4747" opacity="1.000000" stroke="none" 
	d="
M369.592255,381.500366 
	C369.589752,378.986908 369.587280,376.473389 369.561218,373.535217 
	C377.640656,370.803772 379.734680,368.105621 379.746704,359.604004 
	C379.777588,337.807770 379.757202,316.011444 379.757324,294.215179 
	C379.757355,292.400665 379.757355,290.586151 379.757355,288.429779 
	C385.799866,288.429779 391.527191,288.429779 397.577332,288.429779 
	C397.688934,289.377594 397.896484,290.320648 397.897003,291.263855 
	C397.914154,321.878479 397.913391,352.493103 397.900391,383.107727 
	C397.900055,383.930176 397.734680,384.752533 397.307983,385.849274 
	C391.289001,386.090485 385.608307,386.057343 379.128540,385.980164 
	C375.417114,384.457550 372.504700,382.978973 369.592255,381.500366 
z"/>
<path fill="#52C6D5" opacity="1.000000" stroke="none" 
	d="
M20.996181,311.019104 
	C20.996181,306.902527 20.996181,303.281799 20.996181,299.194458 
	C25.380392,299.194458 29.350485,298.836548 33.230770,299.274445 
	C39.818859,300.017944 43.688320,304.436401 43.799122,311.568604 
	C44.008247,325.029510 44.006294,338.498016 43.808914,351.959198 
	C43.695652,359.683594 39.539017,363.987946 31.959688,364.655609 
	C28.534111,364.957367 25.059874,364.706757 20.996183,364.706757 
	C20.996183,346.623047 20.996183,329.069000 20.996181,311.019104 
z"/>
<path fill="#3D5385" opacity="1.000000" stroke="none" 
	d="
M228.003799,459.767334 
	C236.143936,459.805084 243.784607,459.839142 251.425110,459.895538 
	C251.727097,459.897797 252.027512,460.113068 252.679535,460.364258 
	C252.679535,470.931152 252.679535,481.631500 252.679535,492.665894 
	C239.705307,492.665894 226.816696,492.665894 213.484100,492.665894 
	C213.484100,481.947296 213.484100,471.133698 213.484100,459.767548 
	C218.284729,459.767548 222.894516,459.767548 228.003799,459.767334 
z"/>
<path fill="#FE836C" opacity="1.000000" stroke="none" 
	d="
M168.008377,459.596619 
	C176.483002,459.596527 184.459671,459.596527 192.740570,459.596527 
	C192.740570,470.777863 192.740570,481.664612 192.740570,492.875732 
	C185.315094,492.875732 178.008499,493.253174 170.758636,492.773438 
	C162.947174,492.256561 156.602859,485.804077 156.107544,478.172058 
	C155.721893,472.229614 156.030396,466.242126 156.030396,459.596741 
	C159.997009,459.596741 163.753723,459.596741 168.008377,459.596619 
z"/>
<path fill="#FD826B" opacity="1.000000" stroke="none" 
	d="
M306.904694,477.467010 
	C304.543060,488.313263 298.877167,492.935883 288.332428,492.995331 
	C283.378937,493.023254 278.425140,493.000122 273.268860,493.000122 
	C273.268860,481.755005 273.268860,470.999542 273.268860,459.918762 
	C284.364899,459.918762 295.287476,459.918762 306.936249,459.918762 
	C306.936249,465.533295 306.936249,471.279114 306.904694,477.467010 
z"/>
<path fill="#F34545" opacity="1.000000" stroke="none" 
	d="
M86.680183,330.065155 
	C86.680054,334.507141 86.680054,338.462341 86.680054,342.794556 
	C79.097046,342.794556 71.887665,342.794556 64.260925,342.794556 
	C64.260925,335.651947 64.260925,328.307648 64.260925,320.370667 
	C70.859123,320.370667 77.455772,320.266174 84.041077,320.492279 
	C84.946503,320.523346 86.352661,322.089081 86.553116,323.131561 
	C86.953110,325.211731 86.677116,327.421906 86.680183,330.065155 
z"/>
<path fill="#020202" opacity="1.000000" stroke="none" 
	d="
M369.254364,381.636292 
	C372.504700,382.978973 375.417114,384.457550 378.665283,386.049133 
	C381.792236,395.028992 378.687164,401.044159 370.424347,402.079529 
	C365.770203,401.325531 362.008972,399.743652 360.362885,395.296326 
	C358.073090,389.109894 361.668030,383.479645 369.254364,381.636292 
z"/>
<path fill="#010102" opacity="1.000000" stroke="none" 
	d="
M47.609936,33.984947 
	C48.585423,35.825237 49.434822,37.451733 49.818871,39.181549 
	C50.698887,43.145245 49.923962,46.781963 46.676376,49.474072 
	C42.567352,52.880268 38.202679,52.480930 33.432457,49.942326 
	C29.077087,44.773266 28.752153,39.225033 32.196163,35.307457 
	C35.959705,31.026417 41.155273,30.513149 47.609936,33.984947 
z"/>
<path fill="#010101" opacity="1.000000" stroke="none" 
	d="
M361.186676,86.602463 
	C372.556396,92.210846 378.517883,101.216225 378.827179,113.347229 
	C379.127380,125.121956 373.633118,134.248840 363.336426,139.963074 
	C353.018616,145.689011 342.492126,145.333344 332.613983,138.822144 
	C322.384918,132.079620 317.706238,122.167648 319.298889,110.105835 
	C320.825317,98.545151 327.374725,90.272614 338.473297,85.936691 
	C346.010010,82.992302 353.452087,83.418159 361.186676,86.602463 
M356.044098,108.455780 
	C353.026886,104.078552 348.905670,104.114136 344.622559,105.907555 
	C340.308441,107.713959 338.340698,113.850822 340.481445,117.973160 
	C342.634735,122.119720 349.088043,124.509796 352.920929,122.580299 
	C357.938843,120.054253 359.525482,114.229843 356.044098,108.455780 
z"/>
<path fill="#010101" opacity="1.000000" stroke="none" 
	d="
M86.228004,102.486069 
	C91.641968,90.833061 100.535034,84.574257 112.936852,84.076874 
	C124.769676,83.602325 133.822632,89.027229 139.859467,99.093384 
	C146.702942,110.504601 144.339142,126.345161 134.778870,135.386063 
	C124.866539,144.759918 109.575531,146.465088 98.321480,139.451584 
	C86.570786,132.128540 81.280853,118.201012 85.322594,105.222618 
	C85.569817,104.428757 85.832672,103.639755 86.228004,102.486069 
M116.872749,122.986412 
	C117.885201,122.190384 118.962402,121.463417 119.898438,120.585876 
	C123.237442,117.455589 124.213287,113.786369 122.037552,109.603813 
	C119.612976,104.942902 115.271851,104.115196 110.855431,105.201988 
	C106.312500,106.319908 104.702179,109.951950 104.956551,114.619598 
	C105.268250,120.338982 108.615990,122.997658 116.872749,122.986412 
z"/>
<path fill="#020303" opacity="1.000000" stroke="none" 
	d="
M195.000061,271.215790 
	C206.659042,271.216187 217.818359,271.163208 228.976944,271.228821 
	C247.981415,271.340546 260.412079,282.259796 261.366394,301.129486 
	C262.104797,315.730164 261.754333,330.437012 260.978088,345.048309 
	C260.252258,358.710449 248.056854,370.658783 234.364746,370.875458 
	C205.895645,371.325989 177.409576,371.335907 148.940475,370.889771 
	C134.825241,370.668549 122.629692,358.363586 122.039467,344.217865 
	C121.436020,329.755005 121.329185,315.236359 121.835083,300.771179 
	C122.459839,282.907227 135.087921,271.445282 153.528610,271.246826 
	C167.184280,271.099823 180.842804,271.216553 195.000061,271.215790 
M241.605148,315.508392 
	C241.604523,311.513214 241.676651,307.516418 241.588181,303.523193 
	C241.401855,295.113129 237.715851,291.289886 229.365936,291.262726 
	C204.229675,291.180908 179.092880,291.186798 153.956558,291.257141 
	C145.449875,291.280945 141.718292,294.973480 141.648010,303.340546 
	C141.547318,315.325317 141.541595,327.312286 141.647903,339.296967 
	C141.721771,347.624329 145.267670,351.178741 153.529343,351.198639 
	C178.832169,351.259644 204.135315,351.253357 229.438187,351.201294 
	C237.844254,351.183990 241.455811,347.528259 241.581619,338.978363 
	C241.691818,331.488953 241.604935,323.996674 241.605148,315.508392 
z"/>
<path fill="#020302" opacity="1.000000" stroke="none" 
	d="
M296.558533,337.463928 
	C304.329254,335.023987 305.184021,329.631104 304.904388,322.679565 
	C304.369141,309.373718 304.685669,296.030487 304.781952,282.703735 
	C304.828339,276.280884 307.556122,272.752014 312.773956,271.775482 
	C318.193909,270.761139 322.794373,273.590454 324.055756,278.942291 
	C324.545624,281.020752 324.710907,283.217224 324.718964,285.361084 
	C324.774170,300.021057 324.657440,314.682709 324.872437,329.339722 
	C324.897095,331.021088 326.210480,333.451477 327.635742,334.221619 
	C338.046844,339.846863 344.092987,348.420258 344.458649,360.155945 
	C344.857330,372.950653 344.922791,385.821259 343.988647,398.574951 
	C342.898376,413.460236 329.111023,424.791687 314.095703,424.380951 
	C298.565582,423.956177 285.671906,412.123199 285.033813,397.018402 
	C284.535004,385.210938 284.783447,373.370239 284.776520,361.544250 
	C284.770782,351.768250 288.701233,343.837830 296.558533,337.463928 
M321.818359,401.377563 
	C322.763885,399.116699 324.468903,396.874939 324.526306,394.591736 
	C324.806152,383.460907 324.949341,372.307373 324.521973,361.185638 
	C324.283295,354.974365 319.506195,351.112061 314.075714,351.489807 
	C308.452545,351.880981 304.871796,355.870483 304.786224,362.362274 
	C304.650360,372.670105 304.771759,382.981171 304.735901,393.290680 
	C304.720917,397.605133 306.085724,401.228119 310.084961,403.225983 
	C313.979950,405.171844 317.793610,404.666565 321.818359,401.377563 
z"/>
<path fill="#020505" opacity="1.000000" stroke="none" 
	d="
M179.420410,423.982880 
	C173.369324,420.883575 171.279037,417.286377 172.394119,412.522766 
	C173.564270,407.523956 176.936050,404.783997 183.031006,404.586304 
	C189.178665,404.386871 195.359360,404.368469 201.491745,404.777740 
	C207.281143,405.164062 210.928467,409.198242 210.998016,414.400055 
	C211.066711,419.536835 207.453766,423.906403 201.725021,424.214233 
	C194.447845,424.605225 187.124573,424.138123 179.420410,423.982880 
z"/>
<path fill="#020405" opacity="1.000000" stroke="none" 
	d="
M124.536369,407.569855 
	C127.420326,406.374817 129.986374,404.859772 132.649094,404.664856 
	C138.281281,404.252472 143.971680,404.341034 149.623947,404.572449 
	C156.363937,404.848328 160.485046,408.780457 160.511902,414.477386 
	C160.538559,420.132080 156.401505,424.199860 149.712708,424.513947 
	C143.897186,424.786957 138.035950,424.885315 132.234772,424.484131 
	C122.603958,423.818176 118.963844,415.961243 124.536369,407.569855 
z"/>
<path fill="#020505" opacity="1.000000" stroke="none" 
	d="
M226.734070,406.578308 
	C236.454422,403.104889 246.104065,403.791077 255.509872,405.669067 
	C259.820740,406.529785 261.750793,410.882507 261.249237,415.578552 
	C260.773163,420.036011 258.301666,423.543579 253.962646,423.856567 
	C246.044159,424.427826 237.956680,424.797485 230.122803,423.805328 
	C222.096802,422.788788 220.352707,413.403717 226.734070,406.578308 
z"/>
<path fill="#FFFFFF" opacity="1.000000" stroke="none" 
	d="
M356.323456,108.760086 
	C359.525482,114.229843 357.938843,120.054253 352.920929,122.580299 
	C349.088043,124.509796 342.634735,122.119720 340.481445,117.973160 
	C338.340698,113.850822 340.308441,107.713959 344.622559,105.907555 
	C348.905670,104.114136 353.026886,104.078552 356.323456,108.760086 
z"/>
<path fill="#FFFFFF" opacity="1.000000" stroke="none" 
	d="
M116.457420,122.991928 
	C108.615990,122.997658 105.268250,120.338982 104.956551,114.619598 
	C104.702179,109.951950 106.312500,106.319908 110.855431,105.201988 
	C115.271851,104.115196 119.612976,104.942902 122.037552,109.603813 
	C124.213287,113.786369 123.237442,117.455589 119.898438,120.585876 
	C118.962402,121.463417 117.885201,122.190384 116.457420,122.991928 
z"/>
<path fill="#FDECD8" opacity="1.000000" stroke="none" 
	d="
M241.605133,316.007019 
	C241.604935,323.996674 241.691818,331.488953 241.581619,338.978363 
	C241.455811,347.528259 237.844254,351.183990 229.438187,351.201294 
	C204.135315,351.253357 178.832169,351.259644 153.529343,351.198639 
	C145.267670,351.178741 141.721771,347.624329 141.647903,339.296967 
	C141.541595,327.312286 141.547318,315.325317 141.648010,303.340546 
	C141.718292,294.973480 145.449875,291.280945 153.956558,291.257141 
	C179.092880,291.186798 204.229675,291.180908 229.365936,291.262726 
	C237.715851,291.289886 241.401855,295.113129 241.588181,303.523193 
	C241.676651,307.516418 241.604523,311.513214 241.605133,316.007019 
z"/>
<path fill="#FACB32" opacity="1.000000" stroke="none" 
	d="
M321.526947,401.640503 
	C317.793610,404.666565 313.979950,405.171844 310.084961,403.225983 
	C306.085724,401.228119 304.720917,397.605133 304.735901,393.290680 
	C304.771759,382.981171 304.650360,372.670105 304.786224,362.362274 
	C304.871796,355.870483 308.452545,351.880981 314.075714,351.489807 
	C319.506195,351.112061 324.283295,354.974365 324.521973,361.185638 
	C324.949341,372.307373 324.806152,383.460907 324.526306,394.591736 
	C324.468903,396.874939 322.763885,399.116699 321.526947,401.640503 
z"/>
</svg>